<svg width="231" height="231" viewBox="0 0 231 231" fill="none" xmlns="http://www.w3.org/2000/svg">
<circle opacity="0.1" cx="115.5" cy="115.5" r="115.5" fill="#7DDE7A"/>
<circle opacity="0.3" cx="115.5" cy="115.5" r="57.75" fill="#7DDE7A"/>
<g clip-path="url(#clip0_48_4406)">
<path d="M115.5 144.375C107.842 144.375 100.497 141.333 95.0823 135.918C89.6672 130.503 86.625 123.158 86.625 115.5C86.625 107.842 89.6672 100.497 95.0823 95.0823C100.497 89.6672 107.842 86.625 115.5 86.625C123.158 86.625 130.503 89.6672 135.918 95.0823C141.333 100.497 144.375 107.842 144.375 115.5C144.375 123.158 141.333 130.503 135.918 135.918C130.503 141.333 123.158 144.375 115.5 144.375ZM109.725 129.938L135.713 105.394L131.381 101.062L109.725 121.275L99.6188 111.169L95.2875 115.5L109.725 129.938Z" fill="#32AC2E"/>
</g>
<defs>
<clipPath id="clip0_48_4406">
<rect width="57.75" height="57.75" fill="white" transform="translate(86.625 86.625)"/>
</clipPath>
</defs>
</svg>
